REM DIRINDEX 1\2,1\3,1\4,1\5,1\6
REM DIRNAME cjc129,folder01,folder02,folder03,folder04,folder05
TITLE ""
FILE "DISC3Track12.mp3" MP3
  TRACK 01 AUDIO
    TITLE "0:"
    INDEX 01 00:00:00
  TRACK 02 AUDIO
    TITLE "2:cjc129_2373"
    INDEX 01 00:00:05
  TRACK 03 AUDIO
    TITLE "0:"
    INDEX 01 00:05:14
  TRACK 04 AUDIO
    TITLE "3:cjc129_2374"
    INDEX 01 00:06:28
  TRACK 05 AUDIO
    TITLE "0:"
    INDEX 01 00:07:52
  TRACK 06 AUDIO
    TITLE "5:cjc129_2375"
    INDEX 01 00:08:07
  TRACK 07 AUDIO
    TITLE "0:"
    INDEX 01 00:12:30
  TRACK 08 AUDIO
    TITLE "4:cjc129_2376"
    INDEX 01 00:13:20
  TRACK 09 AUDIO
    TITLE "0:"
    INDEX 01 00:14:41
  TRACK 10 AUDIO
    TITLE "6:cjc129_2377"
    INDEX 01 00:15:01
  TRACK 11 AUDIO
    TITLE "0:"
    INDEX 01 00:19:11
  TRACK 12 AUDIO
    TITLE "3:cjc129_2378"
    INDEX 01 00:20:65
  TRACK 13 AUDIO
    TITLE "0:"
    INDEX 01 00:22:11
  TRACK 14 AUDIO
    TITLE "5:cjc129_2379"
    INDEX 01 00:22:44
  TRACK 15 AUDIO
    TITLE "0:"
    INDEX 01 00:24:20
  TRACK 16 AUDIO
    TITLE "4:cjc129_2380"
    INDEX 01 00:25:13
  TRACK 17 AUDIO
    TITLE "0:"
    INDEX 01 00:26:36
  TRACK 18 AUDIO
    TITLE "6:cjc129_2381"
    INDEX 01 00:26:69
  TRACK 19 AUDIO
    TITLE "0:"
    INDEX 01 00:30:36
  TRACK 20 AUDIO
    TITLE "3:cjc129_2382"
    INDEX 01 00:32:21
  TRACK 21 AUDIO
    TITLE "0:"
    INDEX 01 00:33:42
  TRACK 22 AUDIO
    TITLE "5:cjc129_2383"
    INDEX 01 00:34:00
  TRACK 23 AUDIO
    TITLE "0:"
    INDEX 01 00:38:00
  TRACK 24 AUDIO
    TITLE "4:cjc129_2384"
    INDEX 01 00:38:65
  TRACK 25 AUDIO
    TITLE "0:"
    INDEX 01 00:40:11
  TRACK 26 AUDIO
    TITLE "6:cjc129_2385"
    INDEX 01 00:40:42
  TRACK 27 AUDIO
    TITLE "0:"
    INDEX 01 00:45:30
  TRACK 28 AUDIO
    TITLE "3:cjc129_2386"
    INDEX 01 00:47:03
  TRACK 29 AUDIO
    TITLE "0:"
    INDEX 01 00:48:20
  TRACK 30 AUDIO
    TITLE "5:cjc129_2387"
    INDEX 01 00:48:51
  TRACK 31 AUDIO
    TITLE "0:"
    INDEX 01 00:54:36
  TRACK 32 AUDIO
    TITLE "4:cjc129_2388"
    INDEX 01 00:55:26
  TRACK 33 AUDIO
    TITLE "0:"
    INDEX 01 00:56:41
  TRACK 34 AUDIO
    TITLE "6:cjc129_2389"
    INDEX 01 00:56:72
  TRACK 35 AUDIO
    TITLE "0:"
    INDEX 01 01:01:17
  TRACK 36 AUDIO
    TITLE "3:cjc129_2390"
    INDEX 01 01:02:67
  TRACK 37 AUDIO
    TITLE "0:"
    INDEX 01 01:04:05
  TRACK 38 AUDIO
    TITLE "5:cjc129_2391"
    INDEX 01 01:04:39
  TRACK 39 AUDIO
    TITLE "0:"
    INDEX 01 01:10:41
  TRACK 40 AUDIO
    TITLE "4:cjc129_2392"
    INDEX 01 01:11:29
  TRACK 41 AUDIO
    TITLE "0:"
    INDEX 01 01:12:44
  TRACK 42 AUDIO
    TITLE "6:cjc129_2393"
    INDEX 01 01:13:00
  TRACK 43 AUDIO
    TITLE "0:"
    INDEX 01 01:17:53
  TRACK 44 AUDIO
    TITLE "3:cjc129_2394"
    INDEX 01 01:19:28
  TRACK 45 AUDIO
    TITLE "0:"
    INDEX 01 01:20:44
  TRACK 46 AUDIO
    TITLE "5:cjc129_2395"
    INDEX 01 01:21:04
  TRACK 47 AUDIO
    TITLE "0:"
    INDEX 01 01:25:13
  TRACK 48 AUDIO
    TITLE "4:cjc129_2396"
    INDEX 01 01:26:05
  TRACK 49 AUDIO
    TITLE "0:"
    INDEX 01 01:27:24
  TRACK 50 AUDIO
    TITLE "6:cjc129_2397"
    INDEX 01 01:27:55
  TRACK 51 AUDIO
    TITLE "0:"
    INDEX 01 01:31:71
  TRACK 52 AUDIO
    TITLE "3:cjc129_2398"
    INDEX 01 01:33:50
  TRACK 53 AUDIO
    TITLE "0:"
    INDEX 01 01:37:32
  TRACK 54 AUDIO
    TITLE "5:cjc129_2399"
    INDEX 01 01:37:62
  TRACK 55 AUDIO
    TITLE "0:"
    INDEX 01 01:42:14
  TRACK 56 AUDIO
    TITLE "4:cjc129_2400"
    INDEX 01 01:43:03
  TRACK 57 AUDIO
    TITLE "0:"
    INDEX 01 01:46:59
  TRACK 58 AUDIO
    TITLE "6:cjc129_2401"
    INDEX 01 01:47:17
  TRACK 59 AUDIO
    TITLE "0:"
    INDEX 01 01:52:26
